<?xml version="1.0" standalone="no"?>
<!DOCTYPE svg PUBLIC "-//W3C//DTD SVG 20010904//EN"
 "http://www.w3.org/TR/2001/REC-SVG-20010904/DTD/svg10.dtd">
<svg version="1.0" xmlns="http://www.w3.org/2000/svg"
 width="640.000000pt" height="1280.000000pt" viewBox="0 0 640.000000 1280.000000"
 preserveAspectRatio="xMidYMid meet">
<metadata>
Created by potrace 1.15, written by Peter Selinger 2001-2017
</metadata>
<g transform="translate(0.000000,1280.000000) scale(0.100000,-0.100000)"
fill="#000000" stroke="none">
<path d="M1689 12771 l-29 -29 0 -4496 0 -4496 -686 0 c-759 0 -728 3 -755
-63 -11 -26 -10 -35 7 -66 23 -42 2842 -3552 2885 -3593 40 -39 80 -37 123 5
41 39 2919 3556 2936 3587 19 36 4 88 -33 110 -31 19 -56 20 -719 20 l-688 0
0 4498 c-1 3519 -3 4500 -13 4513 -7 9 -22 21 -34 27 -16 9 -394 12 -1493 12
l-1472 0 -29 -29z"/>
</g>
</svg>
